{
	"meshes":[{
		"name":"Sphere.3",
		"primitives":[{
			"attributes":{
				"POSITION":1,
				"TEXCOORD_0":3,
				"NORMAL":2
			},
			"indices":0,
			"material":0
		}]
	}],
	"asset":{
		"version":"2.0",
		"generator":"Created using the official Cinema 4D glTF Exporter 1.000x284978"
	},
	"scenes":[{
		"nodes":[0]
	}],
	"nodes":[{
		"name":"Sphere.3",
		"mesh":0
	}],
	"accessors":[{
		"bufferView":0,
		"type":"SCALAR",
		"componentType":5123,
		"count":18720,
		"byteOffset":0,
		"min":[0],
		"max":[3318]
	},
	{
		"bufferView":1,
		"type":"VEC3",
		"componentType":5126,
		"count":3319,
		"byteOffset":0,
		"min":[-36.737762451171878,
		-36.737762451171878,
		-36.737762451171878],
		"max":[36.737762451171878,
		36.737762451171878,
		36.737762451171878]
	},
	{
		"bufferView":1,
		"type":"VEC3",
		"componentType":5126,
		"count":3319,
		"byteOffset":12,
		"min":[-1.0,
		-0.9999999403953552,
		-1.0],
		"max":[1.0,
		0.9999999403953552,
		1.0]
	},
	{
		"bufferView":1,
		"type":"VEC2",
		"componentType":5126,
		"count":3319,
		"byteOffset":24,
		"min":[0.0,
		0.0],
		"max":[1.0,
		1.0]
	}],
	"samplers":[{
		"magFilter":9729,
		"minFilter":9729,
		"wrapS":10497,
		"wrapT":10497
	}],
	"bufferViews":[{
		"buffer":0,
		"byteOffset":0,
		"byteLength":37440,
		"target":34963
	},
	{
		"buffer":0,
		"byteOffset":37440,
		"byteLength":106208,
		"target":34962,
		"byteStride":32
	}],
	"buffers":[{
		"uri":"data:application/octet-stream;base64,",
		"byteLength":143648
	}],
	"images":[{
		"uri":"data:image/jpeg;base64,"
	}],
	"textures":[{
		"sampler":0,
		"source":0
	}],
	"materials":[{
		"pbrMetallicRoughness":{
			"baseColorTexture":{
				"index":0
			},
			"baseColorFactor":[0.8,
			0.8,
			0.8,
			1.0],
			"metallicFactor":0.0,
			"roughnessFactor":0.5
		},
		"emissiveFactor":[0.0,
		0.0,
		0.0],
		"alphaMode":"OPAQUE",
		"doubleSided":false,
		"name":"Mat.3"
	}]
}