{
	"asset":{
		"version":"2.0",
		"generator":"Created using the official Cinema 4D glTF Exporter 1.000x284978"
	},
	"scenes":[{
		"nodes":[0]
	}],
	"nodes":[{
		"name":"PP_Corp_17",
		"translation":[3.0219969749450685,
		32.31743621826172,
		84.57025146484375],
		"rotation":[0.0,
		0.0,
		0.0,
		-1.0],
		"scale":[1.0,
		1.0,
		1.0],
		"children":[1,
		2]
	},
	{
		"name":"PP_Corp_17-Plafon_translice",
		"mesh":0
	},
	{
		"name":"PP_Corp_17-Plafon_translice",
		"mesh":1
	}],
	"materials":[{
		"pbrMetallicRoughness":{
			"baseColorFactor":[0.8666666666666667,
			0.8666666666666667,
			0.8666666666666667,
			1.0],
			"metallicFactor":1.0,
			"roughnessFactor":1.0
		},
		"emissiveFactor":[0.0,
		0.0,
		0.0],
		"alphaMode":"OPAQUE",
		"doubleSided":false,
		"name":"Plafon_translice"
	}],
	"meshes":[{
		"name":"PP_Corp_17-Plafon_translice",
		"primitives":[{
			"attributes":{
				"POSITION":1,
				"NORMAL":2,
				"TEXCOORD_0":3
			},
			"indices":0,
			"material":0
		}]
	},
	{
		"name":"PP_Corp_17-Plafon_translice",
		"primitives":[{
			"attributes":{
				"POSITION":5,
				"NORMAL":6,
				"TEXCOORD_0":7
			},
			"indices":4,
			"material":0
		}]
	}],
	"accessors":[{
		"bufferView":0,
		"type":"SCALAR",
		"max":[3479],
		"componentType":5123,
		"count":12816,
		"byteOffset":0,
		"min":[0]
	},
	{
		"bufferView":1,
		"type":"VEC3",
		"max":[91.65098571777344,
		2.2938613891601564,
		47.999969482421878],
		"componentType":5126,
		"count":3480,
		"byteOffset":0,
		"min":[-78.34906005859375,
		-32.27080535888672,
		-48.000030517578128]
	},
	{
		"bufferView":1,
		"type":"VEC3",
		"max":[0.9692813158035278,
		0.8214063048362732,
		0.9975000619888306],
		"componentType":5126,
		"count":3480,
		"byteOffset":12,
		"min":[-0.9999688267707825,
		-0.9999688267707825,
		-0.9974687695503235]
	},
	{
		"bufferView":1,
		"type":"VEC2",
		"max":[0.9402217864990234,
		0.9397076368331909],
		"componentType":5126,
		"count":3480,
		"byteOffset":24,
		"min":[0.0599263533949852,
		0.05955296754837036]
	},
	{
		"bufferView":2,
		"type":"SCALAR",
		"max":[3005],
		"componentType":5123,
		"count":10842,
		"byteOffset":0,
		"min":[0]
	},
	{
		"bufferView":3,
		"type":"VEC3",
		"max":[91.37742614746094,
		8.38604736328125,
		47.78422546386719],
		"componentType":5126,
		"count":3006,
		"byteOffset":0,
		"min":[-78.18495178222656,
		-25.340225219726564,
		-47.784278869628909]
	},
	{
		"bufferView":3,
		"type":"VEC3",
		"max":[1.0,
		1.0,
		0.9964375495910645],
		"componentType":5126,
		"count":3006,
		"byteOffset":12,
		"min":[-0.9998437762260437,
		-0.00003125000148429535,
		-0.9964063167572022]
	},
	{
		"bufferView":3,
		"type":"VEC2",
		"max":[0.9387054443359375,
		0.9390741586685181],
		"componentType":5126,
		"count":3006,
		"byteOffset":24,
		"min":[0.061294496059417728,
		0.06170213222503662]
	}],
	"bufferViews":[{
		"target":34963,
		"byteOffset":0,
		"buffer":0,
		"byteLength":25632
	},
	{
		"target":34962,
		"byteOffset":25632,
		"buffer":0,
		"byteLength":111360,
		"byteStride":32
	},
	{
		"target":34963,
		"byteOffset":0,
		"buffer":1,
		"byteLength":21684
	},
	{
		"target":34962,
		"byteOffset":21684,
		"buffer":1,
		"byteLength":96192,
		"byteStride":32
	}],
	"buffers":[{
		"uri":"data:application/octet-stream;base64,",
		"byteLength":136992
	},
	{
		"uri":"data:application/octet-stream;base64,",
		"byteLength":117876
	}]
}